<?xml version="1.0" encoding="utf-8"?>
<!-- Generator: Adobe Illustrator 19.2.0, SVG Export Plug-In . SVG Version: 6.00 Build 0)  -->
<svg version="1.1" id="Camada_1" xmlns="http://www.w3.org/2000/svg" xmlns:xlink="http://www.w3.org/1999/xlink" x="0px" y="0px"
	 viewBox="0 0 1190.6 841.9" style="enable-background:new 0 0 1190.6 841.9;" xml:space="preserve">
<style type="text/css">
	.st0{fill-rule:evenodd;clip-rule:evenodd;}
</style>
<g>
	<path class="st0" d="M175.5,500.9h3.9v6c0.7-1,1.6-2,2.5-2.9c4.7-4.7,10.4-7,17-7c6.6,0,12.3,2.3,17,7c4.7,4.7,7,10.3,7,17
		c0,6.6-2.3,12.3-7,16.9c-4.7,4.7-10.3,7-17,7c-6.6,0-12.3-2.3-17-7c-0.9-0.9-1.8-1.9-2.5-2.9v25.1h-3.9V500.9L175.5,500.9z
		 M179.4,516.9v8.2c0.8,3.8,2.6,7.1,5.4,9.9c3.9,3.9,8.6,5.8,14,5.8c5.5,0,10.1-1.9,14-5.8c3.9-3.9,5.8-8.5,5.8-14
		c0-5.5-1.9-10.2-5.8-14c-3.9-3.9-8.5-5.8-14-5.8c-5.5,0-10.2,1.9-14,5.8C182,509.9,180.2,513.2,179.4,516.9L179.4,516.9z
		 M276.6,473.9h3.9v29.2c3.3-3.2,7.3-4.8,12-4.8c5.1,0,9.2,1.6,12.4,4.8c3.2,3.2,4.8,7.2,4.9,12v28.7h-3.9v-28.4
		c0-3.7-1.3-6.8-4-9.3c-2.6-2.6-5.8-3.9-9.4-3.9c-3.6,0-6.7,1.3-9.4,3.8c-1.2,1.2-2,2.4-2.6,3.6v34.1h-3.9V473.9L276.6,473.9z
		 M387.2,497c6.6,0,12.3,2.4,17,7c4.7,4.7,7,10.4,7,17c0,6.6-2.3,12.3-7,16.9c-4.7,4.7-10.3,7-17,7c-6.6,0-12.3-2.3-17-7
		c-4.7-4.7-7-10.3-7-16.9c0-6.7,2.3-12.3,7-17C374.9,499.4,380.6,497,387.2,497L387.2,497z M387.2,501.2c-5.5,0-10.2,1.9-14,5.8
		c-3.9,3.9-5.8,8.5-5.8,14c0,5.5,1.9,10.1,5.8,14c3.9,3.8,8.5,5.8,14,5.8c5.5,0,10.2-1.9,14-5.8c3.9-3.9,5.8-8.5,5.8-14
		c0-5.5-1.9-10.2-5.8-14C397.3,503.1,392.6,501.2,387.2,501.2L387.2,501.2z M470.6,500.9v-18.3h3.9v18.3h8.7v3.9h-8.7v39h-3.9v-39
		h-8.7v-3.9H470.6L470.6,500.9z M558,497c6.6,0,12.3,2.4,17,7c4.7,4.7,7,10.4,7,17c0,6.6-2.3,12.3-7,16.9c-4.7,4.7-10.3,7-17,7
		c-6.6,0-12.3-2.3-17-7c-4.7-4.7-7-10.3-7-16.9c0-6.7,2.3-12.3,7-17C545.8,499.4,551.4,497,558,497L558,497z M558,501.2
		c-5.5,0-10.2,1.9-14,5.8c-3.9,3.9-5.8,8.5-5.8,14c0,5.5,1.9,10.1,5.8,14c3.9,3.8,8.5,5.8,14,5.8c5.5,0,10.2-1.9,14-5.8
		c3.9-3.9,5.8-8.5,5.8-14c0-5.5-1.9-10.2-5.8-14C568.2,503.1,563.5,501.2,558,501.2L558,501.2z M677.7,516.9
		c-0.7-3.8-2.6-7.1-5.4-9.9c-3.9-3.9-8.5-5.8-14-5.8c-5.5,0-10.2,1.9-14,5.8c-3.9,3.9-5.8,8.5-5.8,14c0,5.5,1.9,10.1,5.8,14
		c3.9,3.9,8.5,5.8,14,5.8c5.5,0,10.1-1.9,14-5.8c2.8-2.8,4.6-6.1,5.4-9.8V516.9L677.7,516.9z M677.6,535.3c-0.7,0.9-1.5,1.8-2.4,2.7
		c-4.7,4.7-10.4,7-17,7c-6.6,0-12.3-2.3-17-7c-4.7-4.7-7-10.3-7-16.9c0-6.7,2.3-12.3,7-17c4.7-4.7,10.3-7,17-7c6.6,0,12.3,2.3,17,7
		c0.9,0.9,1.7,1.9,2.5,2.9v-6.1h3.9v33.3c0,6.4-2.3,12-6.9,16.5c-4.7,4.7-10.3,7-17,7c-6.6,0-12.3-2.4-17-7c-1-1-1.8-2-2.6-3
		l4.1-1.5c0.4,0.5,0.9,1,1.4,1.5c3.9,3.9,8.5,5.8,14,5.8c5.4,0,10.1-1.9,14-5.8C675.4,544.3,677.3,540.1,677.6,535.3L677.6,535.3z
		 M737.9,500.9h3.9v7.8c0.8-1.2,1.8-2.3,2.8-3.4c3.5-3.5,7-5.3,10.7-5.5v4.3c-2.5,0.1-5,1.5-7.7,4.1c-3.7,3.7-5.7,8.1-5.8,13.3v22.2
		h-3.9V500.9L737.9,500.9z M853.3,543.8h-3.9v-8.7c-0.7,1-1.6,2-2.5,2.9c-4.7,4.7-10.4,7-17,7c-6.6,0-12.3-2.3-17-7
		c-4.7-4.7-7-10.3-7-16.9c0-6.7,2.3-12.3,7-17c4.7-4.7,10.3-7,17-7c6.6,0,12.3,2.3,17,7c0.9,0.9,1.7,1.9,2.5,2.9v-6.1h3.9V543.8
		L853.3,543.8z M849.3,524.9v-7.8c-0.7-3.8-2.6-7.2-5.5-10.1c-3.9-3.9-8.5-5.8-14-5.8c-5.5,0-10.2,1.9-14,5.8
		c-3.9,3.9-5.8,8.5-5.8,14c0,5.5,1.9,10.1,5.8,14c3.9,3.8,8.5,5.8,14,5.8c5.5,0,10.1-1.9,14-5.8
		C846.8,532.1,848.6,528.8,849.3,524.9L849.3,524.9z M910.1,500.9h3.9v6c0.7-1,1.6-2,2.5-2.9c4.7-4.7,10.4-7,17-7
		c6.6,0,12.3,2.3,17,7c4.7,4.7,7,10.3,7,17c0,6.6-2.3,12.3-7,16.9c-4.7,4.7-10.3,7-17,7c-6.6,0-12.3-2.3-17-7
		c-0.9-0.9-1.8-1.9-2.5-2.9v25.1h-3.9V500.9L910.1,500.9z M914,516.9v8.2c0.8,3.8,2.6,7.1,5.4,9.9c3.9,3.9,8.6,5.8,14,5.8
		c5.5,0,10.1-1.9,14-5.8c3.9-3.9,5.8-8.5,5.8-14c0-5.5-1.9-10.2-5.8-14c-3.9-3.9-8.5-5.8-14-5.8c-5.5,0-10.2,1.9-14,5.8
		C916.6,509.9,914.8,513.2,914,516.9L914,516.9z M1011.3,473.9h3.9v29.2c3.3-3.2,7.3-4.8,12-4.8c5.1,0,9.2,1.6,12.4,4.8
		c3.2,3.2,4.8,7.2,4.9,12v28.7h-3.9v-28.4c0-3.7-1.3-6.8-4-9.3c-2.6-2.6-5.8-3.9-9.4-3.9s-6.7,1.3-9.4,3.8c-1.2,1.2-2,2.4-2.6,3.6
		v34.1h-3.9V473.9L1011.3,473.9z M1114.6,540l-9.7,20.2h-3.8l11.6-24.3l-16.7-35h4.5l14.2,30.8l14.2-30.8h4.4L1114.6,540L1114.6,540
		z"/>
	<g>
		<path class="st0" d="M220.2,311.1c12.3-7.8,29.9-21.6,33.3-21.6c2,0,3.4,1,3.4,6.9c0,0-7.4,26.5-49.5,94.1l-30.9,45.6
			c0,0-2,3.4-2,7.4c0,6.4,5.9,9.8,11.8,9.8c4.4,0,8.3-2,11.8-2.9c51.5-29.4,89.7-74.5,123.5-121.1c5.9-8.3,13.2-18.6,13.2-30.4
			c0-5.4-2-9.3-4.9-9.3c-2.9,0-7.8,5.9-7.8,13.2c0,4.4,1.5,8.8,1.5,14.2c-2.5,2.9-4.9,5.9-6.9,8.8c-33.3,46.1-72.1,91.2-121.6,118.6
			c-2.9,1.5-7.8,3.9-11.3,3.9c1,0,81.9-108.8,81.9-151c0-1.5-0.5-3.4-0.5-4.9c0,0-1.5-9.3-10.8-9.3c-12.7,0-98.5,82.8-153.4,82.8
			c-13.7,0-21.6-4.4-34.3-12.7c-9.8-10.3-4.9-28.9-18.1-28.9c-2.5,0-3.4,2.5-3.4,5.4c0,10.8,22.1,42.6,55.9,42.6
			C142.8,372.3,186.4,336.6,220.2,311.1L220.2,311.1z M360,424.7c-26.8,23.3-30.9,16.8-30.9,17.3c-10.3,0-10.8-10.8-10.8-10.8
			c0-5.4,0.5-9.8,2.9-17.2v0.5c-10.8,10.3-31.9,23-31.9,23c-4.9,2.9-8.3,3.4-11.3,3.4c-9.3,0-9.8-8.8-9.8-13.2
			c0-17.2,17.6-39.2,17.6-39.2c27.5-33.8,42.2-36.3,42.2-36.3c9.8-4.4,19.6,2.9,17.2,16.7c4.9-7.4,11.3-18.1,22.5-18.1
			c2.9,0,3.4,1.5,3.4,2.9c0,2-1,4.4-1.5,4.9l0,0c-42.2,56.9-43.6,68.6-43.6,72.5c0,3.9,2.5,4.4,3.9,4.4c8.3,0,28.9-17.8,32.3-19.5
			 M294.3,426.7c-9.3,5.9-13.7,7.4-15.2,6.9c-1.5-0.5-1.5-2.5-1.5-3.4c0-14.2,20.6-35.8,20.6-35.8c5.9-6.4,27.9-31.9,36.3-31.9
			c4.9,0,5.4,6.9,5.4,11.3C339.8,397.3,296.2,425.3,294.3,426.7L294.3,426.7z M402.3,417.2c0,1-22.3,18.3-31.1,18.3
			c-2,0-3.9-0.5-3.9-3.9c0-3.9,1-16.7,52-84.8l0,0l34.8-42.6c0,0,2.5-3.9,2.5-8.3c0-2-1-6.9-4.4-6.9c-1,0-2.5,0.5-4.4,2.5
			c-2.9,0-88.2,102-88.2,139.7c0,0-1,11.3,10.8,10.8c1,0,8.6,1.4,31.3-18 M469.2,405.7c2.9-4.4,8.8-9.8,10.8-8.8
			c1.5,1-2.5,8.3-5.9,12.7c-9.3,10.8-15.2,15.2-27,22.1c-10.8,5.9-39.2,20.6-45.1,0c-5.9-22.1,26-69.1,47.1-78.9
			c7.4-3.9,17.2-3.9,20.6,5.4c11.8,32.8-30.4,49.5-52,59.8c-2,0.5-3.4,1-5.4,1.5c-2,5.4-2.5,10.3-1.5,14.2c2.9,6.4,24-2,33.3-7.8
			C457.5,417.4,460.4,414.5,469.2,405.7L469.2,405.7z M452.1,366.5c4.9-3.9,10.3-6.9,11.8-3.9c5.9,23.5-25.5,39.7-48,49
			C424.2,394.4,437.9,376.3,452.1,366.5L452.1,366.5z M475.1,320.9c0,11.8-24,17.6-29.9,17.6c-2.5,0-3.9-0.5-3.9-0.5
			c0-0.5,0-0.5,0.5-0.5c14.2-3.9,14.2-20.6,28.9-20.6C473.7,316.9,475.1,318.4,475.1,320.9L475.1,320.9z M544.2,360.1
			c-1.5,10.3-8.3,20.6-9.8,24c-1,2.5-2,8.8,2.5,8.8c2.5,0,15.2-5.4,15.2-27.9c0-9.8-4.4-14.2-10.3-14.2c-12.7,0-32.8,19.6-42.2,29.4
			c5.4-8.3,17.2-21.1,17.2-27c0-1.5-1-2-2.5-2.5c-16.2-2.9-33.3,34.8-50.5,71.6c-2.5,4.9-2.5,9.3-2.5,12.3c0,3.9,1,6.4,2.5,6.4
			c3.4,0,4.4-5.9,11.8-18.1c14.7-25,35.8-50,60.8-63.7C538.9,357.6,544.2,356.2,544.2,360.1L544.2,360.1z M588.1,415.1
			c-0.8,2-3.2,4.7-3.2,4.7c-25.5,22.5-35.3,22.1-36.3,22.1c-11.3-0.5-10.8-10.8-10.8-10.8c0-17.6,13.7-43.6,33.8-72.5
			c2.9-3.4,10.3-7.8,15.7-7.8c2.5,0,3.4,1,3.4,2.9c0,2-1.5,4.4-2,4.9c-39.2,53.9-42.6,69.6-42.6,69.6c-0.5,1.5-0.5,2.5-0.5,3.4
			c0,3.4,2.5,3.9,3.9,3.9c7.4,1,35.3-21.1,35.3-22.1c1-0.5,2-0.5,2.5-0.5c0,0,0,0,0.1,0 M589.8,338.5c0.5,0.5,1,0.5,2,0.5
			c4.9,0,12.7-9.8,12.7-17.6c0-2.9-1.5-4.4-3.4-4.4c-5.4,0-13.2,10.8-13.2,17.6C587.9,336.6,588.4,338,589.8,338.5L589.8,338.5z
			 M679,358.6c0.5-0.5,1.5-2.9,1.5-4.9c0-1.5-0.5-2.9-3.4-2.9c-11.3,0-17.6,10.8-22.5,18.1c2.5-13.7-7.4-21.1-17.2-16.7
			c0,0-14.7,2.5-42.2,36.3c0,0-17.6,22.1-17.6,39.2c0,4.4,0.5,13.2,9.8,13.2c2.9,0,6.4-0.5,11.3-3.4c0,0,21.1-12.7,31.9-23V414
			c-2.5,7.4-2.9,11.8-2.9,17.2c0,0,0.5,10.8,10.8,10.8c0-0.5,8.3,2.5,36.8-22.1c0,0,3.4-3.9,3.4-5.9c0-0.5-0.5-1-1-1
			c-3.9,0-29.9,22.5-38.2,22.5c-1.5,0-3.9-0.5-3.9-4.4C635.4,427.2,636.9,415.5,679,358.6L679,358.6z M603.6,426.7
			c2-1.5,45.6-29.4,45.6-52.9c0-4.4-0.5-11.3-5.4-11.3c-8.3,0-30.4,25.5-36.3,31.9c0,0-20.6,21.6-20.6,35.8c0,1,0,2.9,1.5,3.4
			C589.8,434.1,594.2,432.6,603.6,426.7L603.6,426.7z M740.8,380.2c-12.3-0.5-18.6,9.3-16.7,31.4c2.5,27.5,26.5,40.7,46.6,40.7
			c17.2,0,37.7-4.9,49-12.7c32.8,20.6,68.6,36.3,106.9,36.3c46.6,0,76-21.1,76-30.9c0-2-1.5-3.4-4.4-3.4c-12.3,0-7.4,12.3-23,19.6
			c-20.1,7.4-31.9,8.8-48.5,8.8c-36.3,0-70.6-14.7-102-34.3c7.8-7.4,15.7-20.6,15.7-36.3c0-33.8-35.8-60.3-35.8-81.4
			c0-26,14.7-29.4,30.4-29.4c8.3,0,21.6,4.9,21.6,13.7c0,1.5-0.5,3.4-0.5,4.9c0,8.8,6.4,16.2,10.3,16.2c2.5,0,3.9-2.9,3.9-7.4
			c0-17.6-16.7-33.3-35.8-33.8c-22.5-0.5-41.7,14.7-41.7,37.7c0,29.9,32.4,52,32.4,81.4c0,10.8-4.9,20.1-11.8,27
			C792.8,416,757.5,381.2,740.8,380.2L740.8,380.2z M730,407.6c-0.5-18.6,2.5-23,9.3-23c13.7,0,45.6,31.9,69.6,47.5
			c-10.8,8.8-25,13.7-38.7,13.7C747.7,445.9,730,429.2,730,407.6L730,407.6L730,407.6z M950.1,377.2c-6.9,14.2-22.5,25-40.7,25
			c-2.9,0-3.9,2.5-5.9,5.4c-1,1.5-24.5,34.8-50,34.8c-3.9,0-10.8-1-11.3-12.3c-1.5-36.3,41.2-82.4,66.7-82.4
			c12.7,0,13.2,12.3,13.2,16.7c0,5.9-1.5,16.7-10.3,30.9c14.7-1,26.5-9.8,31.9-21.1c0.5-1.5,2-2.5,2.9-2.5
			C950.6,371.8,950.1,376.7,950.1,377.2L950.1,377.2z M858,434.1c-0.5,0-3.9,0.5-3.9-7.4c0-20.6,13.2-43.1,25-55.9
			c-0.5,1.5-0.5,3.4-0.5,4.9c0,12.7,9.3,22.1,21.6,25C893.7,409.1,873.6,433.6,858,434.1L858,434.1z M903.5,394.9
			c-11.8-3.4-18.6-10.8-18.6-19.1c0-3.9,3.9-17.6,17.2-17.6c3.4,0,9.3,2,9.3,11.8C911.4,374.3,909.9,382.1,903.5,394.9L903.5,394.9
			L903.5,394.9z M996.2,360.1c0-3.9-5.4-2.5-7.8-1c-25,13.7-46.1,38.7-60.8,63.7c-7.4,12.3-8.3,18.1-11.8,18.1
			c-1.5,0-2.5-2.5-2.5-6.4c0-2.9,0-7.4,2.5-12.3c17.2-36.8,34.3-74.5,50.5-71.6c1.5,0.5,2.5,1,2.5,2.5c0,5.9-11.8,18.6-17.2,27
			c9.3-9.8,29.4-29.4,42.2-29.4c5.9,0,10.3,4.4,10.3,14.2c0,22.5-12.7,27.9-15.2,27.9c-4.4,0-3.4-6.4-2.5-8.8
			C987.9,380.7,994.7,370.4,996.2,360.1L996.2,360.1z M1131,289.5c2,1.5,2.9,3.9,2.9,5.9c0,4.4-2.9,8.8-2.9,8.8l-34.8,42.6
			c-51,67.6-52.5,80.9-52.5,84.3c0,3.9,2.5,4.4,3.9,4.4c7.8,1,33.3-22.5,37.7-22.5c1,0,1.5,0.5,1.5,1c0,2-3.4,5.9-3.4,5.9
			c-15.7,13.2-30.9,22.5-36.8,22.1c-10.3-1-10.8-10.8-10.8-10.8c0-3.9,0.5-8.8,2.5-15.2c-8.3,7.4-28.4,25-41.2,25
			c-9.8,0-10.3-8.3-10.3-13.2c0-23.5,36.8-69.6,59.8-75.5c10.8-3.4,16.7,4.4,17.6,15.2c25.5-38.2,59.8-76,59.8-76
			c2-2,3.4-2.5,4.9-2.5C1130,289,1131,289.5,1131,289.5L1131,289.5z M1058.4,375.8c-7.8,11.8-34.8,44.6-45.6,51
			c-9.3,6.4-13.7,7.4-15.7,7.4c-2,0-1.5-2-1.5-3.4c0-19.6,34.8-53.9,50-62.7C1057.5,361.1,1058.4,366.5,1058.4,375.8L1058.4,375.8z
			 M1111.9,358.6c-20.1,28.9-33.8,54.9-33.8,72.5c0,0-0.5,10.3,10.8,10.8c1,0,10.8,0.5,36.3-22.1c0,0,3.4-3.9,3.4-5.9
			c0-0.5-0.5-1-1-1c-0.5,0-1.5,0-2.5,0.5c0,1-27.9,23-35.3,22.1c-1.5,0-3.9-0.5-3.9-3.9c0-1,0-2,0.5-3.4c0,0,3.4-15.7,42.6-69.6
			c0.5-0.5,2-2.9,2-4.9c0-2-1-2.9-3.4-2.9C1122.2,350.8,1114.8,355.2,1111.9,358.6L1111.9,358.6z M1130,338.5c0.5,0.5,1,0.5,2,0.5
			c4.9,0,12.7-9.8,12.7-17.6c0-2.9-1.5-4.4-3.4-4.4c-5.4,0-13.2,10.8-13.2,17.6C1128.1,336.6,1128.5,338,1130,338.5z"/>
	</g>
</g>
</svg>
